<svg width="169" height="211" viewBox="0 0 169 211" fill="none" xmlns="http://www.w3.org/2000/svg">
<path d="M81.3433 63.008H135.679V134.048C128.511 136.48 121.023 138.4 113.215 139.808C105.535 141.216 96.7673 141.92 86.9113 141.92C73.3433 141.92 61.7593 139.232 52.1593 133.856C42.6873 128.48 35.4553 120.544 30.4633 110.048C25.5993 99.552 23.1673 86.624 23.1673 71.264C23.1673 56.928 25.9193 44.512 31.4233 34.016C37.0553 23.52 45.1833 15.392 55.8073 9.632C66.4313 3.87199 79.4233 0.991993 94.7833 0.991993C102.079 0.991993 109.247 1.75999 116.287 3.296C123.327 4.83199 129.727 6.87999 135.487 9.44L125.887 32.672C121.663 30.496 116.863 28.704 111.487 27.296C106.111 25.888 100.479 25.184 94.5913 25.184C86.1433 25.184 78.7833 27.104 72.5113 30.944C66.3673 34.784 61.5673 40.224 58.1113 47.264C54.7833 54.176 53.1193 62.368 53.1193 71.84C53.1193 80.8 54.3353 88.736 56.7673 95.648C59.1993 102.56 63.0393 108 68.2873 111.968C73.5353 115.808 80.3833 117.728 88.8313 117.728C91.6473 117.728 94.0793 117.664 96.1273 117.536C98.3033 117.28 100.287 117.024 102.079 116.768C103.871 116.384 105.599 116.064 107.263 115.808V87.2H81.3433V63.008ZM16.364 181.296C14.988 181.296 13.756 181.568 12.668 182.112C11.612 182.656 10.716 183.44 9.98 184.464C9.244 185.456 8.684 186.672 8.3 188.112C7.948 189.552 7.772 191.168 7.772 192.96C7.772 195.392 8.06 197.472 8.636 199.2C9.244 200.896 10.188 202.192 11.468 203.088C12.748 203.984 14.38 204.432 16.364 204.432C17.772 204.432 19.164 204.272 20.54 203.952C21.948 203.632 23.468 203.184 25.1 202.608V208.704C23.596 209.312 22.108 209.76 20.636 210.048C19.164 210.336 17.516 210.48 15.692 210.48C12.172 210.48 9.26 209.76 6.956 208.32C4.684 206.848 3.004 204.8 1.916 202.176C0.828 199.52 0.284 196.432 0.284 192.912C0.284 190.32 0.636 187.952 1.34 185.808C2.044 183.632 3.068 181.76 4.412 180.192C5.788 178.624 7.468 177.408 9.452 176.544C11.468 175.68 13.772 175.248 16.364 175.248C18.06 175.248 19.756 175.472 21.452 175.92C23.18 176.336 24.828 176.912 26.396 177.648L24.044 183.552C22.764 182.944 21.468 182.416 20.156 181.968C18.876 181.52 17.612 181.296 16.364 181.296ZM62.549 192.816C62.549 195.472 62.213 197.888 61.541 200.064C60.901 202.208 59.909 204.064 58.565 205.632C57.253 207.2 55.557 208.4 53.477 209.232C51.429 210.064 49.013 210.48 46.229 210.48C43.445 210.48 41.013 210.064 38.933 209.232C36.885 208.368 35.189 207.168 33.845 205.632C32.533 204.064 31.541 202.192 30.869 200.016C30.229 197.84 29.909 195.424 29.909 192.768C29.909 189.216 30.485 186.128 31.637 183.504C32.821 180.88 34.613 178.848 37.013 177.408C39.445 175.936 42.533 175.2 46.277 175.2C49.989 175.2 53.045 175.936 55.445 177.408C57.845 178.848 59.621 180.896 60.773 183.552C61.957 186.176 62.549 189.264 62.549 192.816ZM37.541 192.816C37.541 195.216 37.845 197.28 38.453 199.008C39.061 200.736 40.005 202.064 41.285 202.992C42.565 203.92 44.213 204.384 46.229 204.384C48.309 204.384 49.973 203.92 51.221 202.992C52.501 202.064 53.429 200.736 54.005 199.008C54.613 197.28 54.917 195.216 54.917 192.816C54.917 189.2 54.245 186.368 52.901 184.32C51.557 182.272 49.349 181.248 46.277 181.248C44.229 181.248 42.565 181.712 41.285 182.64C40.005 183.568 39.061 184.896 38.453 186.624C37.845 188.352 37.541 190.416 37.541 192.816ZM76.8001 210H69.6481V175.728H89.2801V181.68H76.8001V190.512H88.4161V196.464H76.8001V210ZM103.144 210H95.9919V175.728H115.624V181.68H103.144V190.512H114.76V196.464H103.144V210ZM142.064 210H122.336V175.728H142.064V181.68H129.584V189.216H141.2V195.168H129.584V204H142.064V210ZM168.923 210H149.195V175.728H168.923V181.68H156.443V189.216H168.059V195.168H156.443V204H168.923V210Z" fill="white"/>
</svg>
