<?xml version="1.0" encoding="utf-8"?>
<!-- Generator: Adobe Illustrator 27.0.0, SVG Export Plug-In . SVG Version: 6.00 Build 0)  -->
<svg version="1.1" id="レイヤー_1" xmlns="http://www.w3.org/2000/svg" xmlns:xlink="http://www.w3.org/1999/xlink" x="0px"
	 y="0px" viewBox="0 0 169 211" style="enable-background:new 0 0 169 211;" xml:space="preserve">
<style type="text/css">
	.st0{fill:#222222;}
</style>
<path class="st0" d="M81.3,63h54.3v71c-7.2,2.4-14.7,4.4-22.5,5.8c-7.7,1.4-16.4,2.1-26.3,2.1c-13.6,0-25.2-2.7-34.8-8.1
	c-9.5-5.4-16.7-13.3-21.7-23.8c-4.9-10.5-7.3-23.4-7.3-38.8c0-14.3,2.8-26.8,8.3-37.2c5.6-10.5,13.8-18.6,24.4-24.4
	C66.4,3.9,79.4,1,94.8,1c7.3,0,14.5,0.8,21.5,2.3c7,1.5,13.4,3.6,19.2,6.1l-9.6,23.2c-4.2-2.2-9-4-14.4-5.4
	c-5.4-1.4-11-2.1-16.9-2.1c-8.4,0-15.8,1.9-22.1,5.8c-6.1,3.8-10.9,9.3-14.4,16.3c-3.3,6.9-5,15.1-5,24.6c0,9,1.2,16.9,3.6,23.8
	c2.4,6.9,6.3,12.4,11.5,16.3c5.2,3.8,12.1,5.8,20.5,5.8c2.8,0,5.2-0.1,7.3-0.2c2.2-0.3,4.2-0.5,6-0.8c1.8-0.4,3.5-0.7,5.2-1V87.2
	H81.3V63z M16.4,181.3c-1.4,0-2.6,0.3-3.7,0.8c-1.1,0.5-2,1.3-2.7,2.4c-0.7,1-1.3,2.2-1.7,3.6c-0.4,1.4-0.5,3.1-0.5,4.8
	c0,2.4,0.3,4.5,0.9,6.2c0.6,1.7,1.6,3,2.8,3.9s2.9,1.3,4.9,1.3c1.4,0,2.8-0.2,4.2-0.5c1.4-0.3,2.9-0.8,4.6-1.3v6.1
	c-1.5,0.6-3,1.1-4.5,1.3c-1.5,0.3-3.1,0.4-4.9,0.4c-3.5,0-6.4-0.7-8.7-2.2c-2.3-1.5-4-3.5-5-6.1c-1.1-2.7-1.6-5.7-1.6-9.3
	c0-2.6,0.4-5,1.1-7.1c0.7-2.2,1.7-4,3.1-5.6c1.4-1.6,3.1-2.8,5-3.6c2-0.9,4.3-1.3,6.9-1.3c1.7,0,3.4,0.2,5.1,0.7
	c1.7,0.4,3.4,1,4.9,1.7l-2.4,5.9c-1.3-0.6-2.6-1.1-3.9-1.6C18.9,181.5,17.6,181.3,16.4,181.3z M62.5,192.8c0,2.7-0.3,5.1-1,7.2
	c-0.6,2.1-1.6,4-3,5.6c-1.3,1.6-3,2.8-5.1,3.6c-2,0.8-4.5,1.2-7.2,1.2s-5.2-0.4-7.3-1.2c-2-0.9-3.7-2.1-5.1-3.6
	c-1.3-1.6-2.3-3.4-3-5.6c-0.6-2.2-1-4.6-1-7.2c0-3.6,0.6-6.6,1.7-9.3c1.2-2.6,3-4.7,5.4-6.1c2.4-1.5,5.5-2.2,9.3-2.2
	c3.7,0,6.8,0.7,9.2,2.2c2.4,1.4,4.2,3.5,5.3,6.1C62,186.2,62.5,189.3,62.5,192.8z M37.5,192.8c0,2.4,0.3,4.5,0.9,6.2
	c0.6,1.7,1.6,3.1,2.8,4c1.3,0.9,2.9,1.4,4.9,1.4c2.1,0,3.7-0.5,5-1.4c1.3-0.9,2.2-2.3,2.8-4c0.6-1.7,0.9-3.8,0.9-6.2
	c0-3.6-0.7-6.4-2-8.5c-1.3-2-3.6-3.1-6.6-3.1c-2,0-3.7,0.5-5,1.4s-2.2,2.3-2.8,4C37.8,188.4,37.5,190.4,37.5,192.8z M76.8,210h-7.2
	v-34.3h19.6v6H76.8v8.8h11.6v6H76.8V210z M103.1,210H96v-34.3h19.6v6h-12.5v8.8h11.6v6h-11.6V210z M142.1,210h-19.7v-34.3h19.7v6
	h-12.5v7.5h11.6v6h-11.6v8.8h12.5V210z M168.9,210h-19.7v-34.3h19.7v6h-12.5v7.5h11.6v6h-11.6v8.8h12.5V210z"/>
</svg>
